<?xml version="1.0" encoding="utf-8"?>
<!-- Generator: Adobe Illustrator 27.9.0, SVG Export Plug-In . SVG Version: 6.00 Build 0)  -->
<svg version="1.1" id="katman_1" xmlns="http://www.w3.org/2000/svg" xmlns:xlink="http://www.w3.org/1999/xlink" x="0px" y="0px"
	 viewBox="0 0 2048 2048" style="enable-background:new 0 0 2048 2048;" xml:space="preserve">
<style type="text/css">
	.st0{fill:#FFFFFF;}
</style>
<g>
	<path class="st0" d="M391.57,338.66c-6.19,16.07-13.3,51.31-21.33,105.7c-8.05,54.42-16.7,118.09-25.96,191.02
		c-9.28,72.93-18.56,150.82-27.81,233.63c-9.28,82.83-17.01,161.04-23.18,234.59c-6.19,73.55-11.13,137.52-14.85,191.94
		c-3.71,54.37-4.31,90.23-1.83,107.54c2.46-4.96,4.29-8.97,5.54-12.05c1.23-3.09,2.46-5.88,3.71-8.34
		c24.73-68.01,49.45-135.37,74.18-202.13s49.45-133.52,74.18-200.27c34.61-97.66,70.13-194.08,106.62-289.28
		c36.46-95.2,78.18-189.14,125.18-281.88c9.88-17.3,19.45-34.92,28.73-52.85c9.26-17.93,19.47-35.55,30.61-52.85
		c16.05-23.47,36.78-36.15,62.15-38.01c25.35-1.83,49.19,5.88,71.5,23.18c22.29,17.3,38.39,37.72,48.31,61.19
		c9.9,23.5,17.33,48.22,22.29,74.18c3.71,23.5,6.8,46.99,9.28,70.47s4.34,47.58,5.59,72.3c2.46,108.79,4.61,216.97,6.44,324.53
		s3.98,215.72,6.44,324.51c1.23,53.14,1.54,105.99,0.92,158.56c-0.63,52.52-0.92,105.37-0.92,158.53c0,21.02-0.36,42.03-1.07,63.05
		c-0.72,21.02-1.79,42.03-3.22,63.05c0,9.88-1.88,18.56-5.59,25.98c-2.48,2.46-5.28,4.29-8.36,5.54c-3.11,1.23-5.9,1.23-8.36,0
		c-13.66-4.94-27.92-11.74-42.79-20.39c-12.41-7.42-20.48-21.64-24.19-42.66c-23.56-131.06-38.74-262.09-45.56-393.13
		c-6.84-131.03-11.49-262.69-13.95-394.98c-0.96-60.57-1.21-120.84-0.72-180.8c0.47-59.96,0.22-120.21-0.72-180.8
		c0-18.53-0.25-37.07-0.72-55.62c-0.49-18.53-0.72-37.09-0.72-55.65c-2.48,0-4.02-0.29-4.65-0.92c-0.63-0.63-1.54-0.94-2.77-0.94
		c-4.96,6.19-9.9,12.07-14.85,17.64c-4.94,5.57-9.26,11.42-12.97,17.6c-33.4,50.71-63.7,102.31-90.88,154.84
		c-27.19,52.54-51.29,106.64-72.3,162.27c-33.4,89.03-65.84,178.66-97.36,268.89c-31.52,90.25-63.36,180.49-95.51,270.72
		c-21.02,58.11-42.34,115.3-63.99,171.55c-21.64,56.25-42.95,113.42-63.96,171.52c-2.48,3.71-4.34,8.03-5.57,12.99
		c-1.23,4.94-3.69,8.65-7.4,11.11c-6.19,6.17-14.85,8.03-25.96,5.57c-3.71,0-7.13-1.25-10.22-3.71c-3.09-2.48-6.48-4.34-10.19-5.54
		c-25.98-8.67-42.66-22.58-50.08-41.72c-7.42-19.18-12.36-39.88-14.82-62.13c-7.42-63.05-10.22-125.49-8.36-187.28
		c1.86-61.84,4.02-124.26,6.51-187.31c3.71-77.89,9.26-154.22,16.68-229.02c7.42-74.78,17.3-149.88,29.69-225.29
		c9.88-63.05,21.31-124.84,34.3-185.43c12.97-60.59,29.98-120.55,51-179.88c3.71-7.42,7.42-15.14,11.13-23.18
		c3.71-8.03,7.42-15.76,11.13-23.18c9.88-19.76,25.33-30.27,46.35-31.52c21.02-1.23,37.09,7.42,48.22,25.96
		c4.92,8.67,8.94,17.33,12.03,25.98s5.88,17.3,8.36,25.96c1.23,3.71,1.23,7.74,0,12.05c-1.25,4.34-2.48,8.34-3.71,12.05
		c-3.71,0-7.11-0.29-10.19-0.92c-3.09-0.63-6.48-1.54-10.19-2.79c-1.25-1.23-2.48-1.86-3.71-1.86
		C395.89,340.52,394.03,339.91,391.57,338.66z"/>
	<path class="st0" d="M1764.87,811.53c4.92-2.46,11.11-6.17,18.53-11.13c18.53-14.82,29.04-22.85,31.52-24.1
		c2.46-1.23,3.09-1.23,1.86,0c-1.25,1.25-0.31,1.25,2.77,0c3.09-1.23,14.53-8.65,34.32-22.25c3.71-3.71,8.34-6.17,13.91-7.42
		c5.54-1.23,11.42-2.46,17.62-3.71c1.23,0,3.09,1.25,5.57,3.71c2.46,2.48,4.94,4.96,7.42,7.42c1.23,0,0.6,1.54-1.86,4.63
		c-2.48,3.09-4.96,5.88-7.42,8.34c-23.5,18.56-38.34,30.29-44.51,35.23c-6.17,4.96-10.82,8.99-13.91,12.07
		c-3.09,3.09-8.05,7.11-14.85,12.05c-6.8,4.94-21.95,16.68-45.43,35.21c-11.13,7.42-17.3,17.33-18.53,29.69
		c-13.59,59.34-31.84,115.9-54.71,169.67c-22.87,53.79-47.91,107.25-75.1,160.41c-63.05,119.9-133.52,232.71-211.41,338.42
		c-77.89,105.7-165.67,204.9-263.32,297.62c-30.9,28.44-63.05,55.62-96.43,81.6c-33.38,25.96-69.22,48.83-107.56,68.61
		c-14.82,7.4-29.65,14.51-44.51,21.33c-14.82,6.77-29.65,9.57-44.49,8.34c-21.02-1.25-40.47-5.25-58.42-12.05
		c-17.91-6.8-33.04-16.39-45.43-28.73c-12.34-12.39-20.99-27.52-25.96-45.45c-4.94-17.93-4.31-39.26,1.86-63.99
		c6.19-25.96,15.16-51.29,26.9-76.01c11.76-24.73,24.41-48.85,38.01-72.32c32.15-53.17,67.09-103.56,104.77-151.13
		c37.72-47.6,77.58-93.03,119.61-136.29c90.23-96.45,184.51-187.31,282.79-272.6c98.28-85.29,199.96-168.12,305.06-248.5
		c4.92-2.46,9.55-6.48,13.88-12.05c4.34-5.54,7.11-11.42,8.36-17.62c9.88-27.19,18.82-54.39,26.87-81.58
		c8.05-27.19,12.68-55.02,13.93-83.46c0-9.88-0.63-18.82-1.86-26.87c-1.25-8.05-3.11-17.01-5.57-26.9
		c-2.48-9.88-9.28-14.85-20.41-14.85c-24.73-3.71-48.83-4.31-72.3-1.86c-23.5,2.48-46.99,6.82-70.47,12.99
		c-45.74,9.9-91.19,21.04-136.31,33.38c-45.12,12.36-90.55,24.1-136.29,35.23c-24.73,6.19-50.71,9.9-77.89,11.13
		c-14.84,0-30.29-3.09-46.35-9.28c-42.03-18.53-59.36-50.68-51.94-96.43c6.17-35.86,15.76-71.1,28.75-105.7
		c12.97-34.61,26.87-67.99,41.72-100.14c35.86-76.64,77.27-147.74,124.24-213.26c46.97-65.51,101.99-124.84,165.04-178.01
		c7.42-6.17,14.22-11.42,20.41-15.76c6.17-4.34,12.36-9.59,18.53-15.76c9.88-8.65,20.1-12.99,30.61-12.99
		c10.51,0,21.31,1.25,32.44,3.71c9.88,3.71,16.07,9.9,18.56,18.56c2.46,8.65,0,17.3-7.42,25.96c-6.19,6.17-12.68,12.68-19.47,19.47
		s-13.3,13.28-19.47,19.45c-46.99,42.05-92.11,85.34-135.37,129.83c-43.28,44.51-82.21,93.97-116.82,148.34
		c-24.73,38.32-47.91,77.27-69.55,116.84s-40.49,80.98-56.54,124.24c-8.67,25.98-13.62,51.31-14.85,76.04
		c-2.48,27.19,9.88,37.69,37.09,31.52c32.15-8.65,63.36-17.3,93.65-25.96c30.27-8.65,61.48-17.3,93.63-25.98
		c35.86-9.88,71.7-19.76,107.56-29.67c35.84-9.88,72.3-19.79,109.42-29.67c39.55-9.88,79.73-9.88,120.53,0
		c35.84,9.88,63.96,27.5,84.38,52.85c20.39,25.35,30.61,57.17,30.61,95.49c1.23,7.42,1.54,15.16,0.92,23.18
		C1765.16,792.69,1764.87,801.65,1764.87,811.53z M1581.28,1017.38c-1.25,0-1.86-0.29-1.86-0.92c0-0.63-0.63-0.94-1.86-0.94
		c-4.94,2.48-8.65,4.96-11.11,7.42c-85.31,69.22-168.15,140-248.5,212.32c-80.35,72.3-157.62,149.26-231.8,230.86
		c-40.8,43.26-79.75,87.77-116.84,133.52c-37.07,45.74-71.07,94.57-101.97,146.51c-14.85,25.96-28.44,51.91-40.8,77.89
		c-12.34,25.93-22.25,53.14-29.67,81.58c-1.23,11.11-2.15,21.93-2.79,32.44c-0.6,10.51,2.19,22.56,8.36,36.17
		c9.88-6.19,19.16-11.13,27.79-14.85c8.67-3.71,17.95-8.65,27.83-14.82c34.61-21.02,67.7-44.2,99.2-69.53
		c31.55-25.38,61.5-52.25,89.94-80.69c97.66-97.66,185.74-201.5,264.26-311.52c78.5-110.04,149.28-226.25,212.32-348.64
		c9.88-19.76,19.45-38.92,28.73-57.48C1561.8,1058.18,1571.39,1038.39,1581.28,1017.38z M1468.17,1419.78
		c11.11-11.13,28.1-35.57,50.97-73.26c22.87-37.72,46.06-78.52,69.55-122.38c23.47-43.89,44.18-85.29,62.11-124.24
		c17.93-38.95,27.5-65.22,28.75-78.81c-29.67,70.47-61.82,138.77-96.43,204.9C1548.52,1292.1,1510.2,1356.71,1468.17,1419.78z"/>
</g>
</svg>
