<?xml version="1.0" encoding="utf-8"?>
<!-- Generator: Adobe Illustrator 27.9.0, SVG Export Plug-In . SVG Version: 6.00 Build 0)  -->
<svg version="1.1" id="katman_1" xmlns="http://www.w3.org/2000/svg" xmlns:xlink="http://www.w3.org/1999/xlink" x="0px" y="0px"
	 viewBox="0 0 2048 2048" style="enable-background:new 0 0 2048 2048;" xml:space="preserve">
<style type="text/css">
	.st0{fill:#FFFFFF;}
</style>
<g>
	<g>
		<g>
			<path class="st0" d="M1060.28,2010.59c-238.81,0-433.1-194.29-433.1-433.11c0-17.97,14.57-32.54,32.54-32.54
				c17.97,0,32.54,14.57,32.54,32.54c0,202.93,165.09,368.02,368.02,368.02c2.54,0,5.08-0.03,7.61-0.08
				c144.7-2.93,230.82-99.95,263.16-189.77c32.83-91.16,28.2-222.8-83.23-318.87L260.51,585.53v943.1
				c0,17.97-14.57,32.54-32.54,32.54c-17.97,0-32.54-14.57-32.54-32.54V514.51c0-12.73,7.42-24.28,18.99-29.59
				c11.57-5.3,25.17-3.37,34.81,4.94l1041.11,897.64c58.1,50.09,97.69,114.67,114.49,186.77c15.61,66.97,11.28,137.32-12.53,203.44
				c-50.62,140.58-174.41,229.78-323.07,232.79C1066.26,2010.56,1063.27,2010.59,1060.28,2010.59z"/>
		</g>
	</g>
	<g>
		<g>
			<path class="st0" d="M980.57,33.69c238.81,0,433.1,194.29,433.1,433.11c0,17.97-14.57,32.54-32.54,32.54
				c-17.97,0-32.54-14.57-32.54-32.54c0-202.93-165.09-368.02-368.02-368.02c-2.54,0-5.08,0.03-7.61,0.08
				c-144.7,2.93-230.82,99.95-263.16,189.77c-32.83,91.16-28.2,222.8,83.23,318.87l987.31,851.26v-943.1
				c0-17.97,14.57-32.54,32.54-32.54c17.97,0,32.54,14.57,32.54,32.54v1014.13c0,12.73-7.42,24.28-18.99,29.59
				c-11.57,5.3-25.17,3.37-34.81-4.94L750.53,656.79c-58.1-50.09-97.69-114.67-114.49-186.77
				c-15.61-66.97-11.28-137.32,12.53-203.44C699.19,126,822.98,36.79,971.64,33.78C974.6,33.72,977.59,33.69,980.57,33.69z"/>
		</g>
	</g>
</g>
</svg>
